<?xml version="1.0" encoding="UTF-8" standalone="no"?>
<!DOCTYPE svg PUBLIC "-//W3C//DTD SVG 1.1//EN"
 "http://www.w3.org/Graphics/SVG/1.1/DTD/svg11.dtd">
<!-- Generated by graphviz version 2.50.0 (0)
 -->
<!-- Title: SiCProDDataModel Pages: 1 -->
<svg width="778pt" height="203pt"
 viewBox="0.00 0.00 778.00 203.00" xmlns="http://www.w3.org/2000/svg" xmlns:xlink="http://www.w3.org/1999/xlink">
<g id="graph0" class="graph" transform="scale(1 1) rotate(0) translate(4 199)">
<title>SiCProDDataModel</title>
<polygon fill="white" stroke="transparent" points="-4,4 -4,-199 774,-199 774,4 -4,4"/>
<text text-anchor="middle" x="385" y="-7.8" font-family="Times,serif" font-size="14.00">SiCProD Data Model</text>
<!-- person -->
<g id="node1" class="node">
<title>person</title>
<g id="a_node1"><a xlink:href="#person" xlink:title="{Person}">
<polygon fill="none" stroke="black" points="256,-154.5 256,-190.5 310,-190.5 310,-154.5 256,-154.5"/>
<text text-anchor="middle" x="283" y="-170.6" font-family="Bitstream Vera Sans" font-size="8.00">Person</text>
</a>
</g>
</g>
<!-- person&#45;&gt;person -->
<g id="edge2" class="edge">
<title>person&#45;&gt;person</title>
<g id="a_edge2"><a xlink:href="#PersonHasCorrespondanceWith" xlink:title="hat Korrespondenz mit&#10;hat Familienbeziehung zu&#10;hat Ehe mit&#10;empfahl&#10;hat Geschäftsbeziehung zu">
<path fill="none" stroke="black" d="M310.11,-181.33C343.11,-188.11 382,-185.17 382,-172.5 382,-161.12 350.61,-157.59 320.3,-161.9"/>
<polygon fill="black" stroke="black" points="319.37,-158.51 310.11,-163.67 320.57,-165.41 319.37,-158.51"/>
</a>
</g>
<g id="a_edge2&#45;label"><a xlink:href="#PersonHasCorrespondanceWith" xlink:title="hat Korrespondenz mit&#10;hat Familienbeziehung zu&#10;hat Ehe mit&#10;empfahl&#10;hat Geschäftsbeziehung zu">
<text text-anchor="middle" x="435" y="-188.6" font-family="Bitstream Vera Sans" font-size="8.00">hat Korrespondenz mit</text>
<text text-anchor="middle" x="435" y="-179.6" font-family="Bitstream Vera Sans" font-size="8.00">hat Familienbeziehung zu</text>
<text text-anchor="middle" x="435" y="-170.6" font-family="Bitstream Vera Sans" font-size="8.00">hat Ehe mit</text>
<text text-anchor="middle" x="435" y="-161.6" font-family="Bitstream Vera Sans" font-size="8.00">empfahl</text>
<text text-anchor="middle" x="435" y="-152.6" font-family="Bitstream Vera Sans" font-size="8.00">hat Geschäftsbeziehung zu</text>
</a>
</g>
</g>
<!-- place -->
<g id="node3" class="node">
<title>place</title>
<g id="a_node3"><a xlink:href="#place" xlink:title="{Ort}">
<polygon fill="none" stroke="black" points="256,-23.5 256,-59.5 310,-59.5 310,-23.5 256,-23.5"/>
<text text-anchor="middle" x="283" y="-39.6" font-family="Bitstream Vera Sans" font-size="8.00">Ort</text>
</a>
</g>
</g>
<!-- person&#45;&gt;place -->
<g id="edge1" class="edge">
<title>person&#45;&gt;place</title>
<g id="a_edge1"><a xlink:href="#PersonHasLivingPlace" xlink:title="bewohnt&#10;besitzt">
<path fill="none" stroke="black" d="M277.2,-154.48C272.7,-139.23 267.58,-116.21 270,-96 271.05,-87.23 273.04,-77.82 275.15,-69.37"/>
<polygon fill="black" stroke="black" points="278.54,-70.22 277.73,-59.66 271.78,-68.42 278.54,-70.22"/>
</a>
</g>
<g id="a_edge1&#45;label"><a xlink:href="#PersonHasLivingPlace" xlink:title="bewohnt&#10;besitzt">
<text text-anchor="middle" x="287" y="-107.6" font-family="Bitstream Vera Sans" font-size="8.00">bewohnt</text>
<text text-anchor="middle" x="287" y="-98.6" font-family="Bitstream Vera Sans" font-size="8.00">besitzt</text>
</a>
</g>
</g>
<!-- institution -->
<g id="node4" class="node">
<title>institution</title>
<g id="a_node4"><a xlink:href="#institution" xlink:title="{Institution}">
<polygon fill="none" stroke="black" points="705.5,-23.5 705.5,-59.5 762.5,-59.5 762.5,-23.5 705.5,-23.5"/>
<text text-anchor="middle" x="734" y="-39.6" font-family="Bitstream Vera Sans" font-size="8.00">Institution</text>
</a>
</g>
</g>
<!-- person&#45;&gt;institution -->
<g id="edge4" class="edge">
<title>person&#45;&gt;institution</title>
<g id="a_edge4"><a xlink:href="#PersonWasMemberOfInstitution" xlink:title="Mitglied von">
<path fill="none" stroke="black" d="M310.2,-163.72C387.12,-141.72 606.45,-78.98 695.61,-53.48"/>
<polygon fill="black" stroke="black" points="696.67,-56.82 705.32,-50.7 694.75,-50.09 696.67,-56.82"/>
</a>
</g>
<g id="a_edge4&#45;label"><a xlink:href="#PersonWasMemberOfInstitution" xlink:title="Mitglied von">
<text text-anchor="middle" x="559.5" y="-103.1" font-family="Bitstream Vera Sans" font-size="8.00">Mitglied von</text>
</a>
</g>
</g>
<!-- court -->
<g id="node5" class="node">
<title>court</title>
<g id="a_node5"><a xlink:href="#court" xlink:title="{Hof}">
<polygon fill="none" stroke="black" points="529,-23.5 529,-59.5 583,-59.5 583,-23.5 529,-23.5"/>
<text text-anchor="middle" x="556" y="-39.6" font-family="Bitstream Vera Sans" font-size="8.00">Hof</text>
</a>
</g>
</g>
<!-- person&#45;&gt;court -->
<g id="edge3" class="edge">
<title>person&#45;&gt;court</title>
<g id="a_edge3"><a xlink:href="#PersonWasPresentAtCourt" xlink:title="war anwesend bei">
<path fill="none" stroke="black" d="M301.13,-154.26C319.82,-137.31 350.46,-111.76 381,-96 425.71,-72.92 482.07,-57.92 518.56,-49.84"/>
<polygon fill="black" stroke="black" points="519.72,-53.17 528.76,-47.65 518.24,-46.33 519.72,-53.17"/>
</a>
</g>
<g id="a_edge3&#45;label"><a xlink:href="#PersonWasPresentAtCourt" xlink:title="war anwesend bei">
<text text-anchor="middle" x="416" y="-103.1" font-family="Bitstream Vera Sans" font-size="8.00">war anwesend bei</text>
</a>
</g>
</g>
<!-- event -->
<g id="node6" class="node">
<title>event</title>
<g id="a_node6"><a xlink:href="#event" xlink:title="{Ereignis}">
<polygon fill="none" stroke="black" points="0,-23.5 0,-59.5 54,-59.5 54,-23.5 0,-23.5"/>
<text text-anchor="middle" x="27" y="-39.6" font-family="Bitstream Vera Sans" font-size="8.00">Ereignis</text>
</a>
</g>
</g>
<!-- person&#45;&gt;event -->
<g id="edge5" class="edge">
<title>person&#45;&gt;event</title>
<g id="a_edge5"><a xlink:href="#PersonTookPartInEvent" xlink:title="nahm teil an">
<path fill="none" stroke="black" d="M255.77,-165.22C221.69,-156.68 162.18,-139.48 116,-114 92.59,-101.08 69.13,-81.92 52.18,-66.68"/>
<polygon fill="black" stroke="black" points="54.15,-63.74 44.41,-59.56 49.42,-68.9 54.15,-63.74"/>
</a>
</g>
<g id="a_edge5&#45;label"><a xlink:href="#PersonTookPartInEvent" xlink:title="nahm teil an">
<text text-anchor="middle" x="140.5" y="-103.1" font-family="Bitstream Vera Sans" font-size="8.00">nahm teil an</text>
</a>
</g>
</g>
<!-- salary -->
<g id="node7" class="node">
<title>salary</title>
<g id="a_node7"><a xlink:href="#salary" xlink:title="{Gehalt}">
<polygon fill="none" stroke="black" points="126,-23.5 126,-59.5 180,-59.5 180,-23.5 126,-23.5"/>
<text text-anchor="middle" x="153" y="-39.6" font-family="Bitstream Vera Sans" font-size="8.00">Gehalt</text>
</a>
</g>
</g>
<!-- person&#45;&gt;salary -->
<g id="edge6" class="edge">
<title>person&#45;&gt;salary</title>
<g id="a_edge6"><a xlink:href="#PersonRecievedSalary" xlink:title="erhielt Gehalt&#10;zahlte aus">
<path fill="none" stroke="black" d="M255.98,-157.15C238.12,-146.78 214.97,-131.54 198,-114 185.12,-100.68 173.99,-83.1 166.02,-68.7"/>
<polygon fill="black" stroke="black" points="169.06,-66.95 161.26,-59.78 162.88,-70.25 169.06,-66.95"/>
</a>
</g>
<g id="a_edge6&#45;label"><a xlink:href="#PersonRecievedSalary" xlink:title="erhielt Gehalt&#10;zahlte aus">
<text text-anchor="middle" x="224.5" y="-107.6" font-family="Bitstream Vera Sans" font-size="8.00">erhielt Gehalt</text>
<text text-anchor="middle" x="224.5" y="-98.6" font-family="Bitstream Vera Sans" font-size="8.00">zahlte aus</text>
</a>
</g>
</g>
<!-- function -->
<g id="node2" class="node">
<title>function</title>
<g id="a_node2"><a xlink:href="#function" xlink:title="{Funktion}">
<polygon fill="none" stroke="black" points="698,-154.5 698,-190.5 752,-190.5 752,-154.5 698,-154.5"/>
<text text-anchor="middle" x="725" y="-170.6" font-family="Bitstream Vera Sans" font-size="8.00">Funktion</text>
</a>
</g>
</g>
<!-- function&#45;&gt;institution -->
<g id="edge9" class="edge">
<title>function&#45;&gt;institution</title>
<g id="a_edge9"><a xlink:href="#InstitutionHostsFunction" xlink:title="ist Teil von">
<path fill="none" stroke="black" d="M726.2,-154.37C727.7,-132.78 730.31,-95.41 732.09,-69.85"/>
<polygon fill="black" stroke="black" points="735.6,-69.92 732.8,-59.7 728.61,-69.43 735.6,-69.92"/>
</a>
</g>
<g id="a_edge9&#45;label"><a xlink:href="#InstitutionHostsFunction" xlink:title="ist Teil von">
<text text-anchor="middle" x="750" y="-103.1" font-family="Bitstream Vera Sans" font-size="8.00">ist Teil von</text>
</a>
</g>
</g>
<!-- function&#45;&gt;court -->
<g id="edge8" class="edge">
<title>function&#45;&gt;court</title>
<g id="a_edge8"><a xlink:href="#CourtHostsFunction" xlink:title="ist Teil von">
<path fill="none" stroke="black" d="M702.56,-154.37C672.76,-131.62 620.01,-91.36 586.59,-65.85"/>
<polygon fill="black" stroke="black" points="588.61,-62.99 578.53,-59.7 584.36,-68.55 588.61,-62.99"/>
</a>
</g>
<g id="a_edge8&#45;label"><a xlink:href="#CourtHostsFunction" xlink:title="ist Teil von">
<text text-anchor="middle" x="665" y="-103.1" font-family="Bitstream Vera Sans" font-size="8.00">ist Teil von</text>
</a>
</g>
</g>
<!-- place&#45;&gt;place -->
<g id="edge7" class="edge">
<title>place&#45;&gt;place</title>
<g id="a_edge7"><a xlink:href="#PlaceLocatedInPlace" xlink:title="Teil von">
<path fill="none" stroke="black" d="M310.11,-49.8C343.11,-56.16 382,-53.4 382,-41.5 382,-30.81 350.61,-27.49 320.3,-31.55"/>
<polygon fill="black" stroke="black" points="319.42,-28.14 310.11,-33.2 320.55,-35.05 319.42,-28.14"/>
</a>
</g>
<g id="a_edge7&#45;label"><a xlink:href="#PlaceLocatedInPlace" xlink:title="Teil von">
<text text-anchor="middle" x="396.5" y="-39.6" font-family="Bitstream Vera Sans" font-size="8.00">Teil von</text>
</a>
</g>
</g>
</g>
</svg>
