<?xml version="1.0" encoding="UTF-8" standalone="no"?>
<!DOCTYPE svg PUBLIC "-//W3C//DTD SVG 1.1//EN"
 "http://www.w3.org/Graphics/SVG/1.1/DTD/svg11.dtd">
<!-- Generated by graphviz version 2.50.0 (0)
 -->
<!-- Title: SiCProDDataModel Pages: 1 -->
<svg width="933pt" height="312pt"
 viewBox="0.00 0.00 933.00 312.00" xmlns="http://www.w3.org/2000/svg" xmlns:xlink="http://www.w3.org/1999/xlink">
<g id="graph0" class="graph" transform="scale(1 1) rotate(0) translate(4 308)">
<title>SiCProDDataModel</title>
<polygon fill="white" stroke="transparent" points="-4,4 -4,-308 929,-308 929,4 -4,4"/>
<text text-anchor="middle" x="462.5" y="-7.8" font-family="Times,serif" font-size="14.00">SiCProD Data Model</text>
<!-- person -->
<g id="node1" class="node">
<title>person</title>
<g id="a_node1"><a xlink:href="#person" xlink:title="{Person}">
<polygon fill="none" stroke="black" points="371,-263.5 371,-299.5 425,-299.5 425,-263.5 371,-263.5"/>
<text text-anchor="middle" x="398" y="-279.6" font-family="Bitstream Vera Sans" font-size="8.00">Person</text>
</a>
</g>
</g>
<!-- person&#45;&gt;person -->
<g id="edge2" class="edge">
<title>person&#45;&gt;person</title>
<g id="a_edge2"><a xlink:href="#PersonHasCorrespondanceWith" xlink:title="hat Korrespondenz mit&#10;hat Familienbeziehung zu&#10;hat Ehe mit&#10;empfahl&#10;hat Geschäftsbeziehung zu">
<path fill="none" stroke="black" d="M425.11,-289.8C458.11,-296.16 497,-293.4 497,-281.5 497,-270.81 465.61,-267.49 435.3,-271.55"/>
<polygon fill="black" stroke="black" points="434.42,-268.14 425.11,-273.2 435.55,-275.05 434.42,-268.14"/>
</a>
</g>
<g id="a_edge2&#45;label"><a xlink:href="#PersonHasCorrespondanceWith" xlink:title="hat Korrespondenz mit&#10;hat Familienbeziehung zu&#10;hat Ehe mit&#10;empfahl&#10;hat Geschäftsbeziehung zu">
<text text-anchor="middle" x="550" y="-297.6" font-family="Bitstream Vera Sans" font-size="8.00">hat Korrespondenz mit</text>
<text text-anchor="middle" x="550" y="-288.6" font-family="Bitstream Vera Sans" font-size="8.00">hat Familienbeziehung zu</text>
<text text-anchor="middle" x="550" y="-279.6" font-family="Bitstream Vera Sans" font-size="8.00">hat Ehe mit</text>
<text text-anchor="middle" x="550" y="-270.6" font-family="Bitstream Vera Sans" font-size="8.00">empfahl</text>
<text text-anchor="middle" x="550" y="-261.6" font-family="Bitstream Vera Sans" font-size="8.00">hat Geschäftsbeziehung zu</text>
</a>
</g>
</g>
<!-- place -->
<g id="node3" class="node">
<title>place</title>
<g id="a_node3"><a xlink:href="#place" xlink:title="{Ort}">
<polygon fill="none" stroke="black" points="0,-23.5 0,-59.5 54,-59.5 54,-23.5 0,-23.5"/>
<text text-anchor="middle" x="27" y="-39.6" font-family="Bitstream Vera Sans" font-size="8.00">Ort</text>
</a>
</g>
</g>
<!-- person&#45;&gt;place -->
<g id="edge1" class="edge">
<title>person&#45;&gt;place</title>
<g id="a_edge1"><a xlink:href="#PersonHasLivingPlace" xlink:title="bewohnt&#10;besitzt">
<path fill="none" stroke="black" d="M370.71,-263.85C337.88,-243.74 281.16,-208.79 233,-178 172.01,-139.01 101.72,-92.41 61.02,-65.26"/>
<polygon fill="black" stroke="black" points="62.81,-62.25 52.55,-59.61 58.93,-68.08 62.81,-62.25"/>
</a>
</g>
<g id="a_edge1&#45;label"><a xlink:href="#PersonHasLivingPlace" xlink:title="bewohnt&#10;besitzt">
<text text-anchor="middle" x="250" y="-162.1" font-family="Bitstream Vera Sans" font-size="8.00">bewohnt</text>
<text text-anchor="middle" x="250" y="-153.1" font-family="Bitstream Vera Sans" font-size="8.00">besitzt</text>
</a>
</g>
</g>
<!-- institution -->
<g id="node4" class="node">
<title>institution</title>
<g id="a_node4"><a xlink:href="#institution" xlink:title="{Institution}">
<polygon fill="none" stroke="black" points="523.5,-141.5 523.5,-177.5 580.5,-177.5 580.5,-141.5 523.5,-141.5"/>
<text text-anchor="middle" x="552" y="-157.6" font-family="Bitstream Vera Sans" font-size="8.00">Institution</text>
</a>
</g>
</g>
<!-- person&#45;&gt;institution -->
<g id="edge4" class="edge">
<title>person&#45;&gt;institution</title>
<g id="a_edge4"><a xlink:href="#PersonWasMemberOfInstitution" xlink:title="Mitglied von">
<path fill="none" stroke="black" d="M420.06,-263.31C446.82,-242.46 492.05,-207.21 521.97,-183.9"/>
<polygon fill="black" stroke="black" points="524.24,-186.57 529.98,-177.66 519.94,-181.05 524.24,-186.57"/>
</a>
</g>
<g id="a_edge4&#45;label"><a xlink:href="#PersonWasMemberOfInstitution" xlink:title="Mitglied von">
<text text-anchor="middle" x="503.5" y="-216.6" font-family="Bitstream Vera Sans" font-size="8.00">Mitglied von</text>
</a>
</g>
</g>
<!-- court -->
<g id="node5" class="node">
<title>court</title>
<g id="a_node5"><a xlink:href="#court" xlink:title="{Hof}">
<polygon fill="none" stroke="black" points="805,-23.5 805,-59.5 859,-59.5 859,-23.5 805,-23.5"/>
<text text-anchor="middle" x="832" y="-39.6" font-family="Bitstream Vera Sans" font-size="8.00">Hof</text>
</a>
</g>
</g>
<!-- person&#45;&gt;court -->
<g id="edge3" class="edge">
<title>person&#45;&gt;court</title>
<g id="a_edge3"><a xlink:href="#PersonWasPresentAtCourt" xlink:title="war anwesend bei">
<path fill="none" stroke="black" d="M425.14,-271.72C455.34,-261.55 505.26,-243.53 546,-223 642.65,-174.29 748.4,-102.14 800.03,-65.56"/>
<polygon fill="black" stroke="black" points="802.32,-68.23 808.44,-59.59 798.26,-62.53 802.32,-68.23"/>
</a>
</g>
<g id="a_edge3&#45;label"><a xlink:href="#PersonWasPresentAtCourt" xlink:title="war anwesend bei">
<text text-anchor="middle" x="719" y="-157.6" font-family="Bitstream Vera Sans" font-size="8.00">war anwesend bei</text>
</a>
</g>
</g>
<!-- event -->
<g id="node6" class="node">
<title>event</title>
<g id="a_node6"><a xlink:href="#event" xlink:title="{Ereignis}">
<polygon fill="none" stroke="black" points="178,-23.5 178,-59.5 232,-59.5 232,-23.5 178,-23.5"/>
<text text-anchor="middle" x="205" y="-39.6" font-family="Bitstream Vera Sans" font-size="8.00">Ereignis</text>
</a>
</g>
</g>
<!-- person&#45;&gt;event -->
<g id="edge5" class="edge">
<title>person&#45;&gt;event</title>
<g id="a_edge5"><a xlink:href="#PersonTookPartInEvent" xlink:title="nahm teil an">
<path fill="none" stroke="black" d="M384.12,-263.38C350.54,-221.97 264.78,-116.22 225.37,-67.62"/>
<polygon fill="black" stroke="black" points="228.03,-65.34 219.01,-59.78 222.59,-69.75 228.03,-65.34"/>
</a>
</g>
<g id="a_edge5&#45;label"><a xlink:href="#PersonTookPartInEvent" xlink:title="nahm teil an">
<text text-anchor="middle" x="338.5" y="-157.6" font-family="Bitstream Vera Sans" font-size="8.00">nahm teil an</text>
</a>
</g>
</g>
<!-- function -->
<g id="node2" class="node">
<title>function</title>
<g id="a_node2"><a xlink:href="#function" xlink:title="{Funktion}">
<polygon fill="none" stroke="black" points="871,-263.5 871,-299.5 925,-299.5 925,-263.5 871,-263.5"/>
<text text-anchor="middle" x="898" y="-279.6" font-family="Bitstream Vera Sans" font-size="8.00">Funktion</text>
</a>
</g>
</g>
<!-- function&#45;&gt;institution -->
<g id="edge8" class="edge">
<title>function&#45;&gt;institution</title>
<g id="a_edge8"><a xlink:href="#FunctionIsLocatedAtInstitution" xlink:title="ist an">
<path fill="none" stroke="black" d="M870.85,-271.08C809.81,-249.91 661.56,-198.5 590.82,-173.96"/>
<polygon fill="black" stroke="black" points="591.56,-170.51 580.96,-170.54 589.26,-177.13 591.56,-170.51"/>
</a>
</g>
<g id="a_edge8&#45;label"><a xlink:href="#FunctionIsLocatedAtInstitution" xlink:title="ist an">
<text text-anchor="middle" x="736" y="-216.6" font-family="Bitstream Vera Sans" font-size="8.00">ist an</text>
</a>
</g>
</g>
<!-- function&#45;&gt;court -->
<g id="edge7" class="edge">
<title>function&#45;&gt;court</title>
<g id="a_edge7"><a xlink:href="#FunctionIsLocatedAtInstitution" xlink:title="ist an">
<path fill="none" stroke="black" d="M893.25,-263.38C881.91,-222.49 853.17,-118.83 839.47,-69.45"/>
<polygon fill="black" stroke="black" points="842.84,-68.48 836.79,-59.78 836.09,-70.35 842.84,-68.48"/>
</a>
</g>
<g id="a_edge7&#45;label"><a xlink:href="#FunctionIsLocatedAtInstitution" xlink:title="ist an">
<text text-anchor="middle" x="880" y="-157.6" font-family="Bitstream Vera Sans" font-size="8.00">ist an</text>
</a>
</g>
</g>
<!-- place&#45;&gt;place -->
<g id="edge9" class="edge">
<title>place&#45;&gt;place</title>
<g id="a_edge9"><a xlink:href="#PlaceLocatedInPlace" xlink:title="Teil von">
<path fill="none" stroke="black" d="M54.11,-49.26C87.11,-55.22 126,-52.63 126,-41.5 126,-31.5 94.61,-28.4 64.3,-32.19"/>
<polygon fill="black" stroke="black" points="63.47,-28.78 54.11,-33.74 64.53,-35.7 63.47,-28.78"/>
</a>
</g>
<g id="a_edge9&#45;label"><a xlink:href="#PlaceLocatedInPlace" xlink:title="Teil von">
<text text-anchor="middle" x="140.5" y="-39.6" font-family="Bitstream Vera Sans" font-size="8.00">Teil von</text>
</a>
</g>
</g>
<!-- salary -->
<g id="node7" class="node">
<title>salary</title>
<g id="a_node7"><a xlink:href="#salary" xlink:title="{Gehalt}">
<polygon fill="none" stroke="black" points="438,-23.5 438,-59.5 492,-59.5 492,-23.5 438,-23.5"/>
<text text-anchor="middle" x="465" y="-39.6" font-family="Bitstream Vera Sans" font-size="8.00">Gehalt</text>
</a>
</g>
</g>
<!-- institution&#45;&gt;salary -->
<g id="edge10" class="edge">
<title>institution&#45;&gt;salary</title>
<g id="a_edge10"><a xlink:href="#InstitutionPaidSalary" xlink:title="zahlte aus">
<path fill="none" stroke="black" d="M539.16,-141.38C524.58,-121.94 500.63,-90.01 483.91,-67.71"/>
<polygon fill="black" stroke="black" points="486.69,-65.59 477.89,-59.69 481.09,-69.79 486.69,-65.59"/>
</a>
</g>
<g id="a_edge10&#45;label"><a xlink:href="#InstitutionPaidSalary" xlink:title="zahlte aus">
<text text-anchor="middle" x="531" y="-98.6" font-family="Bitstream Vera Sans" font-size="8.00">zahlte aus</text>
</a>
</g>
</g>
<!-- salary&#45;&gt;person -->
<g id="edge6" class="edge">
<title>salary&#45;&gt;person</title>
<g id="a_edge6"><a xlink:href="#PersonRecievedSalary" xlink:title="erhielt Gehalt">
<path fill="none" stroke="black" d="M459.61,-59.53C453.45,-79.12 443.18,-112.29 435,-141 423.92,-179.89 412.11,-225.19 404.89,-253.36"/>
<polygon fill="black" stroke="black" points="401.44,-252.71 402.36,-263.26 408.22,-254.44 401.44,-252.71"/>
</a>
</g>
<g id="a_edge6&#45;label"><a xlink:href="#PersonRecievedSalary" xlink:title="erhielt Gehalt">
<text text-anchor="middle" x="461.5" y="-157.6" font-family="Bitstream Vera Sans" font-size="8.00">erhielt Gehalt</text>
</a>
</g>
</g>
</g>
</svg>
